<?xml version="1.0" standalone="no"?><!DOCTYPE svg PUBLIC "-//W3C//DTD SVG 1.1//EN" "http://www.w3.org/Graphics/SVG/1.1/DTD/svg11.dtd"><svg t="1538219704768" class="icon" style="" viewBox="0 0 1024 1024" version="1.1" xmlns="http://www.w3.org/2000/svg" p-id="2074" xmlns:xlink="http://www.w3.org/1999/xlink" width="200" height="200"><defs><style type="text/css"></style></defs><path d="M682.381 257H162.027C139.92 257 122 274.908 122 297v610c0 22.092 17.92 40 40.027 40h520.354c22.106 0 40.026-17.908 40.026-40V297c0-22.092-17.92-40-40.026-40z m-10.178 620c0 11.046-8.953 20-20 20h-460c-11.046 0-20-8.954-20-20V327c0-11.046 8.954-20 20-20h460c11.047 0 20 8.954 20 20v550z" fill="#515151" p-id="2075"></path><path d="M551.5 707h-280c-13.807 0-25 11.193-25 25s11.193 25 25 25h280c13.807 0 25-11.193 25-25s-11.193-25-25-25z m-60-140h-220c-13.807 0-25 11.193-25 25s11.193 25 25 25h220c13.807 0 25-11.193 25-25s-11.193-25-25-25z m-60-140h-160c-13.807 0-25 11.193-25 25s11.193 25 25 25h160c13.807 0 25-11.193 25-25s-11.193-25-25-25zM861.803 77h-500c-22.091 0-39.999 17.908-39.999 40v160H372V147c0-11.046 8.954-20 20-20h440c11.047 0 20 8.954 20 20v530c0 11.046-8.953 20-20 20H702.902v50h158.9c22.092 0 40-17.908 40-40V117c0.001-22.092-17.907-40-39.999-40z" fill="#515151" p-id="2076"></path></svg>